<?xml version="1.0" standalone="no"?>
<!DOCTYPE svg PUBLIC "-//W3C//DTD SVG 20010904//EN"
 "http://www.w3.org/TR/2001/REC-SVG-20010904/DTD/svg10.dtd">
<svg version="1.0" xmlns="http://www.w3.org/2000/svg"
 width="1361.000000pt" height="1361.000000pt" viewBox="0 0 1361.000000 1361.000000"
 preserveAspectRatio="xMidYMid meet">
<metadata>
Created by potrace 1.11, written by Peter Selinger 2001-2013
</metadata>
<g transform="translate(0.000000,1361.000000) scale(0.100000,-0.100000)"
fill="#000000" stroke="none">
<path d="M2510 13585 c-861 -105 -1626 -596 -2083 -1336 -197 -319 -323 -661
-389 -1056 l-22 -128 -4 -4180 c-2 -3042 0 -4214 8 -4304 100 -1103 842 -2051
1895 -2420 238 -84 495 -134 769 -151 211 -13 8031 -13 8245 0 519 32 981 185
1403 466 328 219 583 473 799 797 247 371 389 752 456 1217 17 119 18 340 18
4290 0 4514 3 4246 -55 4540 -73 367 -210 699 -415 1005 -126 189 -205 286
-360 441 -437 438 -955 700 -1605 811 -100 17 -323 18 -4330 19 -3379 2 -4246
-1 -4330 -11z m3445 -4255 c514 -74 805 -366 805 -809 0 -199 -56 -363 -194
-566 -72 -108 -283 -323 -376 -386 -126 -84 -237 -112 -280 -69 -36 36 -37 74
-9 335 13 130 7 310 -15 415 -54 253 -188 496 -292 530 -29 10 -39 9 -65 -8
-84 -53 -183 -222 -220 -377 -18 -76 -20 -110 -16 -220 5 -143 24 -220 82
-335 60 -119 124 -192 465 -530 367 -365 446 -458 539 -638 101 -197 134 -337
134 -562 0 -252 -55 -470 -178 -708 -88 -170 -177 -293 -310 -427 -135 -136
-254 -226 -405 -304 -303 -157 -594 -190 -945 -106 -339 80 -702 296 -970 576
-246 257 -317 458 -226 638 99 195 477 430 722 448 108 8 143 -1 196 -50 69
-64 101 -135 177 -404 72 -251 142 -394 253 -513 121 -132 283 -153 395 -52
82 74 118 179 118 342 0 199 -58 362 -210 588 -87 131 -201 248 -472 485 -385
337 -598 604 -692 865 -77 214 -75 507 4 744 197 586 803 1035 1498 1108 106
11 378 5 487 -10z m2851 -30 c99 -6 260 -17 359 -25 99 -8 313 -19 475 -25
318 -12 387 -22 480 -69 109 -55 154 -152 154 -331 -1 -253 -83 -393 -274
-469 -129 -51 -219 -70 -441 -93 l-206 -22 -182 -600 c-100 -331 -181 -605
-181 -610 0 -6 97 -6 243 0 345 13 649 11 727 -5 241 -47 277 -207 120 -522
-83 -164 -205 -321 -281 -360 -70 -35 -123 -40 -529 -49 -223 -4 -439 -12
-481 -15 l-76 -7 -23 -82 c-36 -124 -126 -387 -182 -529 -170 -432 -405 -724
-690 -856 -106 -49 -172 -64 -273 -63 -148 3 -276 54 -378 151 -113 108 -137
204 -98 392 109 513 616 2037 990 2977 23 56 41 106 41 111 0 4 -60 11 -132
14 -299 14 -462 71 -520 179 -19 35 -23 58 -23 128 1 75 5 93 32 150 42 85
215 301 335 416 121 117 219 183 306 205 80 21 420 25 708 9z m949 -3425 c24
-23 25 -28 25 -177 l0 -152 68 66 c78 78 111 94 150 76 15 -7 33 -25 40 -40
20 -43 -4 -81 -137 -213 l-121 -120 0 -192 c0 -106 2 -193 5 -193 13 0 327
185 330 194 2 6 23 85 46 175 24 90 52 175 62 188 28 35 92 29 121 -10 l21
-28 -28 -106 c-16 -58 -27 -107 -25 -108 2 -2 61 30 132 71 71 41 139 74 151
74 12 0 34 -9 49 -21 20 -16 26 -29 26 -58 0 -47 -5 -52 -153 -137 -75 -43
-113 -70 -105 -74 7 -4 38 -13 68 -20 92 -21 127 -39 140 -71 17 -39 -2 -83
-40 -99 -25 -11 -52 -6 -205 35 l-176 46 -161 -93 c-88 -51 -160 -97 -159
-103 1 -10 297 -185 313 -185 6 0 84 20 174 45 90 25 175 45 189 45 33 0 75
-41 75 -73 0 -49 -33 -73 -141 -102 -118 -33 -122 -23 44 -116 142 -80 165
-116 114 -175 -37 -43 -68 -36 -207 44 -68 39 -125 70 -126 69 -1 -1 9 -42 22
-92 13 -49 24 -98 24 -108 0 -28 -45 -67 -78 -67 -56 0 -69 22 -120 210 l-47
175 -160 92 c-88 51 -163 93 -167 93 -5 0 -8 -84 -8 -186 l0 -187 136 -138
c130 -133 136 -140 130 -171 -8 -41 -39 -68 -78 -68 -24 0 -46 16 -109 77
l-79 76 0 -155 c0 -137 -2 -159 -19 -179 -25 -31 -83 -32 -114 -1 -21 21 -22
33 -25 178 l-4 156 -78 -76 c-63 -62 -83 -76 -109 -76 -39 0 -81 39 -81 74 0
28 90 133 204 237 l66 61 0 189 c0 104 -3 189 -7 188 -5 0 -80 -42 -168 -93
l-160 -92 -47 -173 c-25 -95 -54 -181 -64 -192 -27 -30 -91 -23 -118 14 l-21
28 27 102 c15 56 26 102 25 103 -1 1 -60 -32 -132 -73 -106 -60 -136 -73 -160
-68 -53 9 -81 67 -55 115 5 10 66 51 135 90 69 40 128 76 130 80 3 4 -28 16
-68 25 -111 27 -144 43 -157 75 -12 28 -7 63 12 87 21 27 66 23 218 -18 85
-23 167 -44 181 -46 20 -4 63 16 170 78 79 45 152 88 161 94 15 10 -8 26 -151
108 -92 53 -172 97 -178 97 -5 0 -86 -20 -178 -45 -99 -26 -178 -42 -192 -39
-30 8 -53 41 -53 75 0 48 28 68 134 98 l99 27 -114 64 c-143 80 -174 109 -165
153 7 39 39 67 75 67 16 0 83 -32 157 -74 71 -41 130 -73 131 -72 1 0 -10 46
-25 101 -30 115 -26 147 18 170 33 17 71 12 93 -13 9 -10 37 -98 64 -197 l48
-179 160 -93 c88 -50 163 -92 168 -92 4 -1 7 85 7 191 l0 192 -135 136 c-112
114 -135 142 -135 166 1 36 18 60 53 73 39 15 53 7 140 -78 l77 -76 0 148 c0
186 11 214 83 216 17 1 37 -9 52 -24z"/>
</g>
</svg>
